PathFileType	4	(X/Y/Z)	C:\Users\WrightLab\Desktop\Jo\P3_14.trc
DataRate	CameraRate	NumFrames	NumMarkers	Units	OrigDataRate	OrigDataStartFrame	OrigNumFrames
100.00	100.00	       18	19	mm	100.00	421	       672
Frame#	Time	Headset_Front			Headset_Back			Headset_Left			Headset_Right			Left_Shoulder			Right_Shoulder			Sternum			C7			Left Elbow			Right Elbow			Left Wrist			Right Wrist			Left ASIS			Right ASIS			S2			Left Knee			Right Knee			Left Ankle			Right Ankle			
		X1	Y1	Z1	X2	Y2	Z2	X3	Y3	Z3	X4	Y4	Z4	X5	Y5	Z5	X6	Y6	Z6	X7	Y7	Z7	X8	Y8	Z8	X9	Y9	Z9	X10	Y10	Z10	X11	Y11	Z11	X12	Y12	Z12	X13	Y13	Z13	X14	Y14	Z14	X15	Y15	Z15	X16	Y16	Z16	X17	Y17	Z17	X18	Y18	Z18	X19	Y19	Z19	

421	4.200	64.20354	1507.08008	1508.58594	196.43927	1590.21509	1371.07861				-26.12639	1543.19067	1395.38062	299.83942	1368.71082	1297.77051	-58.21013	1352.63086	1257.48901	119.05532	1246.03821	1408.88135	119.22216	1411.08618	1224.49231	402.03278	1048.76819	1340.19629	-118.66084	1005.41766	1233.02100	395.41849	886.95819	1471.19055	-130.05258	830.56042	1381.09668	239.73470	881.36212	1382.01428	-12.80726	886.39148	1384.73499	120.07369	958.49017	1168.52698	253.31033	471.96228	1236.88049	14.40206	488.02295	1486.51868	242.16911	156.78789	1132.86340	42.07513	164.72771	1572.01855	
422	4.210	63.61348	1506.62244	1517.55505	196.60641	1589.07312	1378.78760				-26.00692	1542.54309	1401.75671	299.11978	1366.67456	1306.11890	-58.77610	1351.49133	1265.57813	118.63824	1245.10852	1417.30505	119.29321	1410.01355	1233.04724	401.78088	1047.17395	1349.38892	-118.60207	1004.10565	1241.31897	394.24634	886.76611	1480.58789	-130.24382	828.24890	1387.89880	241.70534	880.44299	1391.54150	-12.81852	885.32269	1394.19067	120.13087	957.09564	1177.10425	253.58412	471.29370	1240.97205	13.82772	485.92462	1492.84192	242.54074	157.69904	1134.11536	39.84941	165.91240	1586.91675	
423	4.220	63.10380	1505.81665	1524.10767	196.25746	1587.86462	1385.49048				-26.71564	1542.13232	1410.31104	298.83096	1365.55994	1314.21130	-58.85054	1350.36060	1273.58997	117.91138	1244.66736	1426.04236	118.36416	1408.80237	1241.25659	399.64056	1045.57458	1357.26331	-118.45547	1002.49493	1248.72168	393.33566	884.77679	1489.89502	-131.14842	826.53821	1394.72119	241.71040	878.92633	1399.02869	-11.91355	883.35394	1403.18835	119.42881	955.93304	1186.09949	253.09258	470.61005	1246.97693	13.24114	483.98029	1499.84741	242.37939	158.99899	1135.61597	37.61963	166.62993	1599.47595	
424	4.230	62.88787	1504.98218	1532.01831	195.76324	1587.33191	1394.74170				-26.92786	1541.05591	1417.48730	298.47739	1364.58459	1323.18762	-59.55927	1349.12317	1281.73291	117.20400	1243.53040	1434.06616	117.65925	1407.41162	1249.19031	398.60550	1044.34863	1365.97302	-118.75616	1001.51849	1256.86646	391.97559	884.01770	1498.20154	-131.75366	824.74426	1401.54089	241.67278	877.52643	1407.68372	-11.34644	881.65924	1412.85510	117.79804	954.83466	1195.30322	253.24638	470.80536	1253.32629	11.90192	482.79349	1507.58093	242.35480	159.88745	1136.78906	35.79356	166.50502	1609.01172	
425	4.240	61.66085	1505.18774	1540.23169	195.34413	1586.00830	1401.73926				-27.91136	1540.66882	1425.79785	298.04593	1363.37329	1331.22461	-60.16721	1347.81848	1289.82202	116.29991	1243.36353	1443.03491	117.15965	1406.25793	1257.77429	397.14270	1042.37683	1374.72253	-119.09718	1000.64014	1265.59155	390.14493	882.16559	1506.56531	-132.57452	822.63892	1408.53687	241.71515	877.00610	1417.07214	-10.80758	880.46539	1422.29749	117.33334	953.57928	1204.35718	253.85535	470.97449	1259.81946	10.96064	481.56485	1516.43774	242.02264	160.88864	1138.79565	33.49374	165.16702	1617.26587	
426	4.250	61.22469	1503.96912	1546.99707	195.38788	1585.22400	1408.85620				-28.09044	1540.24146	1432.87219	296.90878	1361.92969	1340.36401	-61.01919	1346.90552	1297.93726	115.82757	1242.49878	1452.27185	115.91192	1404.88330	1265.57068	396.04166	1040.97681	1383.15625	-119.60600	998.95477	1273.52393	388.14746	880.30634	1514.75500	-133.35570	820.53864	1415.70959	242.38954	874.54364	1424.34070	-11.21597	879.54401	1432.07800	115.93315	952.74750	1213.56262	253.55173	469.98703	1265.64722	10.10905	480.66638	1525.74829	241.82460	162.32530	1140.47595	31.48797	163.16438	1623.11218	
427	4.260	59.97121	1504.82922	1556.16516	194.36736	1584.75732	1417.15637				-29.39003	1540.90271	1441.11316	296.31393	1360.81726	1348.18274	-61.79227	1345.59949	1306.18091	114.31837	1241.84387	1460.78455	115.21842	1403.82959	1274.14197	394.17126	1040.19824	1390.93335	-120.06273	998.07544	1282.25330	385.95389	879.89270	1523.05420	-134.14290	818.72205	1422.89551	241.82983	875.03992	1434.68970	-11.29321	878.66052	1441.57434	115.37902	951.31122	1223.03821	252.83017	469.58853	1272.54810	9.33289	480.20416	1535.72974	241.93054	162.97762	1142.45691	29.04759	160.27155	1628.38257	
428	4.270	59.27666	1504.66711	1563.01440	193.65401	1583.88647	1424.45349	93.50845	1632.52698	1295.88489	-29.33179	1539.68909	1447.69202	295.13535	1360.25500	1356.60791	-63.11313	1344.81738	1314.36523	113.45328	1241.47742	1470.27393	113.97948	1402.94348	1282.01221	392.52481	1038.56567	1398.97974	-120.66171	997.13239	1290.99927	381.39597	875.73291	1529.26721	-135.17924	817.14642	1430.21619	241.43532	872.72040	1442.84290	-12.21256	878.37933	1451.45471	114.35539	950.29468	1232.82422	252.45728	468.75049	1280.56653	8.88303	479.48401	1545.79541	241.99933	165.11763	1145.06543	28.17824	156.98521	1631.32410	
429	4.280	58.33199	1505.23389	1571.21130	192.74081	1583.41199	1432.67297				-30.80596	1539.91260	1455.94116	294.06146	1359.63074	1365.13818	-64.05819	1343.75647	1322.88770	112.74121	1241.34717	1479.31226	112.21281	1401.72363	1290.10876	390.58099	1037.11133	1406.83142	-120.90906	995.67914	1299.29028	381.35284	875.37097	1537.52234	-136.07921	815.55786	1437.69763	240.33359	873.18671	1454.61963	-12.32187	878.23199	1461.37024	113.24692	949.27472	1242.41113	251.88603	468.42975	1289.18872	8.69148	477.45258	1551.69263	241.83493	166.74245	1146.57825	28.35539	154.33020	1635.04785	
430	4.290	56.87336	1505.57312	1578.61182	191.96521	1582.47656	1439.72681				-31.75050	1540.12598	1463.90356	292.43002	1358.24524	1373.23987	-65.36668	1343.04480	1331.31494	110.86729	1240.95300	1487.73682	111.53897	1401.05872	1299.19788	387.86456	1036.32849	1415.25330	-122.43568	995.19080	1307.23242	379.11694	873.79321	1545.58167	-137.26401	814.18866	1445.40320	239.75685	871.83527	1463.96838	-13.60247	878.35028	1471.65735	112.81409	948.47449	1252.59070	251.86093	466.44998	1297.79175	8.06261	477.26013	1562.61987	241.64430	168.75215	1149.51147	28.62772	153.17213	1640.22852	
431	4.300	55.86064	1506.87573	1587.78259	191.00314	1582.82007	1448.28442				-32.44514	1540.47864	1470.59998	291.33936	1357.72839	1381.05676	-66.91882	1342.48010	1339.76245	109.66502	1241.16089	1497.09094	110.27580	1400.08032	1307.43774	385.71866	1034.95374	1423.19812	-122.51186	994.36188	1317.01184	376.97922	873.24896	1553.38391	-138.24861	813.08057	1453.08484	238.23949	871.35693	1474.06299	-15.02054	878.81006	1481.74304	112.19141	947.91760	1262.98877	251.47079	466.39267	1308.67285	8.16219	475.59299	1569.34412	241.05879	170.75760	1152.70447	29.85463	152.31322	1646.13708	
432	4.310	54.75885	1507.16406	1594.24683	189.82008	1582.95935	1455.27014				-33.52504	1541.48193	1478.36365	290.02155	1357.52783	1390.09351	-68.54599	1342.05444	1348.42639	108.13152	1241.60449	1505.91284	108.32304	1400.40820	1315.63257	383.56931	1033.92004	1430.07288	-124.27537	994.33502	1324.75037	374.33963	871.21826	1559.43567	-139.34329	812.24664	1460.90283	236.83235	871.30481	1485.43689	-16.09537	877.49030	1487.34155	111.57690	947.63159	1272.53601	249.97705	465.66360	1317.77588	7.89262	475.02277	1576.99915	241.02632	173.39975	1156.17236	30.80561	151.39473	1649.29736	
433	4.320	53.76728	1508.58203	1602.87170	189.30177	1582.97510	1462.62549				-34.82465	1542.35498	1487.03821	288.28812	1357.16394	1397.94019	-70.08691	1342.02856	1357.06873	106.91040	1242.23230	1515.05627	106.37952	1399.76147	1323.87024	380.61514	1033.53601	1437.70813	-125.35742	993.99701	1333.31116	371.69745	869.94922	1566.58105	-140.82191	811.84595	1468.97473	235.80185	870.94312	1496.29602	-17.86644	877.97992	1496.57581	110.57738	946.89685	1282.81311	250.15038	464.99493	1329.86768	7.31663	476.74771	1586.30078	240.22070	176.29961	1160.33252	32.15755	149.86531	1652.65955	
434	4.330	52.10477	1509.51123	1610.00781	187.61986	1583.69202	1470.40356				-36.36326	1543.84302	1494.58411	287.17633	1357.85303	1406.74658	-71.52628	1342.12988	1365.41077	105.54196	1243.02307	1524.01917	104.92777	1400.04614	1331.91028	377.68420	1032.89465	1445.54883	-126.28717	994.21100	1342.49548	369.05984	869.15912	1572.54309	-141.84169	811.35852	1477.06323	234.01321	869.65979	1504.14392	-19.47254	879.94177	1508.22900	109.66900	946.72009	1293.39233	248.49756	465.03732	1342.12683	7.94713	476.93234	1593.26135	239.81303	179.61900	1165.20911	32.83586	148.75774	1657.03760	
435	4.340	50.84904	1512.00745	1619.53455	186.56297	1583.80322	1478.70984				-37.77959	1545.14233	1503.24121	285.72495	1358.47034	1414.40430	-73.10158	1342.50244	1373.94128	103.66747	1244.26074	1532.22253	103.24720	1400.52625	1340.61206	375.41675	1033.13843	1452.64734	-127.34045	994.41907	1351.33179	365.48737	868.18292	1579.25891	-143.06174	811.35217	1485.56042	231.59421	870.81079	1516.12219	-21.99151	880.58246	1517.79773	109.12379	946.99036	1303.82031	248.18179	464.49548	1354.84058	8.07418	477.54639	1601.63220	238.89293	183.75517	1170.54541	32.94208	148.37749	1659.89783	
436	4.350	49.10606	1513.27673	1626.35266	185.35725	1584.75525	1485.87195				-39.31724	1546.44641	1510.64294	283.81747	1359.36414	1422.70654	-74.71992	1343.02258	1382.51477	102.01656	1246.06433	1541.55005	102.91273	1401.49280	1349.90881	372.38394	1033.54565	1459.86121	-129.16811	995.06165	1359.67029	362.10217	867.07867	1584.39783	-144.44757	811.94397	1493.95459	228.71973	871.77521	1529.21851	-23.98875	882.73486	1529.52771	108.30608	947.85339	1314.23816	248.43924	464.57919	1369.06470	7.49810	479.08765	1611.52087	238.23952	188.27943	1176.95898	32.88423	147.68204	1662.48901	
437	4.360	47.86139	1515.83740	1635.98657	183.81868	1586.43372	1494.35046				-40.29759	1548.06836	1519.09692	282.61343	1360.28381	1431.06946	-76.62939	1344.12085	1390.92017	99.96931	1248.23291	1551.23242	101.19587	1402.60803	1357.85046	369.27179	1033.68860	1466.28589	-130.60194	996.33002	1369.48425	359.58551	867.28363	1591.25952	-145.61540	812.67786	1502.43335	226.46729	873.41602	1540.18494	-27.05877	884.42389	1539.59314	107.27146	948.92163	1324.65295	248.30804	464.99542	1382.51855	6.29121	478.06076	1618.00415	237.68732	193.50888	1182.97998	32.43411	147.19626	1665.45667	
438	4.370	45.99210	1517.43018	1643.25708	182.18106	1587.25085	1502.10181				-42.02946	1550.39563	1526.43103	280.90399	1361.95691	1439.26978	-78.36457	1345.47864	1399.28870	98.19095	1250.42566	1559.10681	99.22205	1403.97217	1366.24988	366.28110	1034.83374	1473.14929	-132.69835	998.05499	1378.05957	355.71857	866.33301	1596.89063	-146.89508	813.12054	1508.85413	225.22646	876.27637	1551.14160	-28.71948	886.10455	1549.50476	106.04909	950.21661	1334.74817	249.68466	464.99512	1398.24084	4.28642	477.61389	1625.04626	237.64883	198.26358	1190.49866	31.94358	146.80754	1667.48364	
